<svg xmlns="http://www.w3.org/2000/svg" version="1.1" xmlns:xlink="http://www.w3.org/1999/xlink" xmlns:svgjs="http://svgjs.dev/svgjs" width="1000" height="1000" viewBox="0 0 1000 1000"><rect width="1000" height="1000" fill="#000000"></rect><g transform="matrix(0.7,0,0,0.7,149.5757575757575,331.3276594369437)"><svg viewBox="0 0 396 191" data-background-color="#213555" preserveAspectRatio="xMidYMid meet" height="482" width="1000" xmlns="http://www.w3.org/2000/svg" xmlns:xlink="http://www.w3.org/1999/xlink"><g id="tight-bounds" transform="matrix(1,0,0,1,0.24000000000003752,-0.015657721431082905)"><svg viewBox="0 0 395.5199999999999 191.03131555325163" height="191.03131555325163" width="395.5199999999999"><g><svg viewBox="0 0 397.4975999999999 191.98647213101788" height="191.03131555325163" width="395.5199999999999"><g><rect width="397.4975999999999" height="5.880292072481301" x="0" y="105.50732525962059" fill="#ffffff" opacity="1" stroke-width="0" stroke="transparent" fill-opacity="1" class="rect-o-0" data-fill-palette-color="secondary" rx="1%" id="o-0" data-palette-color="#ffffff"></rect></g><g transform="matrix(1,0,0,1,0.9887999999999693,126.78105207681733)"><svg viewBox="0 0 395.52 65.20542005420053" height="65.20542005420053" width="395.52"><g id="textblocktransform"><svg viewBox="0 0 395.52 65.20542005420053" height="65.20542005420053" width="395.52" id="textblock"><g><svg viewBox="0 0 395.52 65.20542005420053" height="65.20542005420053" width="395.52"><g transform="matrix(1,0,0,1,0,0)"><svg width="395.52" viewBox="2.1500000953674316 -36.5 221.38999938964844 36.5" height="65.20542005420053" data-palette-color="#ffffff"><path d="M17.05-33.85L11.85-32.8 11.85-3 25.45-3 27.15-11.65 29.9-11.65 29.9 0 2.15 0 2.15-2.15 6.85-3.2 6.85-32.8 2.15-33.85 2.15-36 17.05-36 17.05-33.85ZM48-33.85L43.3-32.8 43.3-3.2 48-2.15 48 0 33.6 0 33.6-2.15 38.3-3.2 38.3-32.8 33.6-33.85 33.6-36 48-36 48-33.85ZM80.2-27.35L80.2-27.35Q80.2-25.45 79.32-23.8 78.45-22.15 76.95-21.05 75.45-19.95 73.5-19.7L73.5-19.7 73.5-19.5Q77.4-18.7 79.65-16.2 81.9-13.7 81.9-10.05L81.9-10.05Q81.9-7.25 80.42-4.88 78.95-2.5 76.7-1.35L76.7-1.35Q75.3-0.65 73.25-0.33 71.2 0 67.5 0L67.5 0 52.55 0 52.55-2.15 56.75-3.2 56.75-32.8 52.55-33.85 52.55-36 69.34-36Q74.59-36 77.45-33.45L77.45-33.45Q78.75-32.25 79.47-30.65 80.2-29.05 80.2-27.35ZM68.15-17.35L68.15-17.35 61.75-17.35 61.75-3 67.25-3Q69.55-3 70.95-3.25 72.34-3.5 73.3-4.05L73.3-4.05Q74.65-4.85 75.5-6.45 76.34-8.05 76.34-10.3L76.34-10.3Q76.34-12.2 75.7-13.63 75.05-15.05 74.05-15.9L74.05-15.9Q73.15-16.65 71.75-17 70.34-17.35 68.15-17.35ZM68.2-33.1L61.75-33.1 61.75-20.25 68-20.25Q71.5-20.25 73.15-22L73.15-22Q73.9-22.8 74.45-24.05 75-25.3 75-26.85L75-26.85Q75-28.4 74.45-29.63 73.9-30.85 73.15-31.6L73.15-31.6Q71.65-33.1 68.2-33.1L68.2-33.1ZM111.19-19.1L111.19-19.1Q110.29-18.4 109.09-17.9 107.89-17.4 106.14-17.05L106.14-17.05Q106.59-16.6 107.12-15.9 107.64-15.2 108.14-14.35L108.14-14.35 114.79-3.1 119.24-2.15 119.24 0 108.94 0 108.94-2.15 101.74-16.15 95.64-16.15 95.64-3.2 100.39-2.15 100.39 0 86.44 0 86.44-2.15 90.64-3.2 90.64-32.8 86.44-33.85 86.44-36 103.64-36Q106.04-36 107.84-35.55 109.64-35.1 111.09-34.1L111.09-34.1Q112.94-32.9 113.97-30.8 114.99-28.7 114.99-26.6L114.99-26.6Q114.99-24.5 113.97-22.48 112.94-20.45 111.19-19.1ZM95.64-33.1L95.64-19.05 102.79-19.05Q105.54-19.05 107.34-20.6L107.34-20.6Q108.34-21.5 108.92-23.03 109.49-24.55 109.49-26.3L109.49-26.3Q109.49-28.05 108.92-29.48 108.34-30.9 107.29-31.8L107.29-31.8Q106.44-32.5 105.32-32.8 104.19-33.1 102.59-33.1L102.59-33.1 95.64-33.1ZM141.84-2.15L145.94-3.2 142.99-12.1 129.59-12.1 126.54-3.2 130.69-2.15 130.69 0 118.99 0 118.99-2.15 123.09-3.2 135.09-36.5 139.74-36.5 151.59-3.2 155.59-2.15 155.59 0 141.84 0 141.84-2.15ZM136.64-32.05L136.44-32.05 130.59-15 142.04-15 136.64-32.05ZM182.54-19.1L182.54-19.1Q181.64-18.4 180.44-17.9 179.24-17.4 177.49-17.05L177.49-17.05Q177.94-16.6 178.46-15.9 178.99-15.2 179.49-14.35L179.49-14.35 186.14-3.1 190.59-2.15 190.59 0 180.29 0 180.29-2.15 173.09-16.15 166.99-16.15 166.99-3.2 171.74-2.15 171.74 0 157.79 0 157.79-2.15 161.99-3.2 161.99-32.8 157.79-33.85 157.79-36 174.99-36Q177.39-36 179.19-35.55 180.99-35.1 182.44-34.1L182.44-34.1Q184.29-32.9 185.31-30.8 186.34-28.7 186.34-26.6L186.34-26.6Q186.34-24.5 185.31-22.48 184.29-20.45 182.54-19.1ZM166.99-33.1L166.99-19.05 174.14-19.05Q176.89-19.05 178.69-20.6L178.69-20.6Q179.69-21.5 180.26-23.03 180.84-24.55 180.84-26.3L180.84-26.3Q180.84-28.05 180.26-29.48 179.69-30.9 178.64-31.8L178.64-31.8Q177.79-32.5 176.66-32.8 175.54-33.1 173.94-33.1L173.94-33.1 166.99-33.1ZM198.94-32.8L207.54-16.8 216.24-32.8 212.19-33.85 212.19-36 223.54-36 223.54-33.85 219.44-32.8 209.24-14.1 209.24-3.2 213.94-2.15 213.94 0 199.54 0 199.54-2.15 204.24-3.2 204.24-13.3 193.49-32.8 189.34-33.85 189.34-36 203.14-36 203.14-33.85 198.94-32.8Z" opacity="1" transform="matrix(1,0,0,1,0,0)" fill="#ffffff" class="wordmark-text-0" data-fill-palette-color="primary" id="text-0"></path></svg></g></svg></g></svg></g></svg></g><g transform="matrix(1,0,0,1,135.5032010549854,0)"><svg viewBox="0 0 126.49119789002911 90.11389051490514" height="90.11389051490514" width="126.49119789002911"><g><svg xmlns="http://www.w3.org/2000/svg" xmlns:xlink="http://www.w3.org/1999/xlink" version="1.1" x="8" y="0" viewBox="5 13.217735290527344 90.15999603271484 73.53226470947266" enable-background="new 0 0 100 100" xml:space="preserve" height="90.11389051490514" width="110.49119789002911" class="icon-icon-0" data-fill-palette-color="accent" id="icon-0"><g fill="#ffffff" data-fill-palette-color="accent"><path fill="#ffffff" d="M11.601 66.382v6.363h13.131v-6.363c1.268-0.283 2.239-1.367 2.239-2.721v-0.555c0-1.354-0.971-2.436-2.239-2.721v-33.87c1.268-0.285 2.239-1.367 2.239-2.72V23.24c0-1.354-0.971-2.435-2.239-2.72v-5.275H11.601v5.275c-1.268 0.288-2.237 1.369-2.237 2.72v0.556c0 1.351 0.969 2.435 2.237 2.72v33.87c-1.268 0.285-2.237 1.369-2.237 2.721v0.555C9.364 65.015 10.333 66.097 11.601 66.382zM11.259 23.795V23.24c0-0.521 0.425-0.946 0.949-0.946h11.921c0.521 0 0.946 0.425 0.946 0.946v0.556c0 0.524-0.425 0.946-0.946 0.946H12.208C11.685 24.742 11.259 24.319 11.259 23.795zM11.259 63.106c0-0.524 0.425-0.947 0.949-0.947h11.921c0.521 0 0.946 0.423 0.946 0.947v0.555c0 0.521-0.425 0.949-0.946 0.949H12.208c-0.524 0-0.949-0.428-0.949-0.949V63.106z" data-fill-palette-color="accent"></path><rect x="5" y="75.43" fill="#ffffff" width="90.16" height="11.32" data-fill-palette-color="accent"></rect><rect x="58.31" y="25.102" fill="#ffffff" width="11.376" height="47.644" data-fill-palette-color="accent"></rect><rect x="39.674" y="13.748" transform="matrix(0.9738 0.2272 -0.2272 0.9738 10.9544 -9.184)" fill="#ffffff" width="11.377" height="58.467" data-fill-palette-color="accent"></rect><rect x="72.461" y="19.917" fill="#ffffff" width="14.205" height="52.828" data-fill-palette-color="accent"></rect></g></svg></g></svg></g><g><rect width="58.97008105498542" height="5.880292072481301" y="83.23359844242384" x="261.9943989450145" fill="#ffffff" data-fill-palette-color="secondary"></rect><rect width="58.97008105498542" height="5.880292072481301" y="83.23359844242384" x="76.53311999999998" fill="#ffffff" data-fill-palette-color="secondary"></rect></g></svg></g><defs></defs></svg><rect width="395.5199999999999" height="191.03131555325163" fill="none" stroke="none" visibility="hidden"></rect></g></svg></g></svg>