<svg xmlns="http://www.w3.org/2000/svg" version="1.1" xmlns:xlink="http://www.w3.org/1999/xlink" xmlns:svgjs="http://svgjs.dev/svgjs" width="1000" height="857" viewBox="0 0 1000 857"><g transform="matrix(1,0,0,1,-0.012974486465850532,0.34696442071901856)"><svg viewBox="0 0 288 247" data-background-color="#dfe8df" preserveAspectRatio="xMidYMid meet" height="857" width="1000" xmlns="http://www.w3.org/2000/svg" xmlns:xlink="http://www.w3.org/1999/xlink"><g id="tight-bounds" transform="matrix(1,0,0,1,0.003736652102162452,-0.10000024727841605)"><svg viewBox="0 0 287.9925266957957 247.2" height="247.2" width="287.9925266957957"><g><svg viewBox="0 0 397.4975999999999 341.19429364149005" height="247.2" width="287.9925266957957"><g><rect width="397.4975999999999" height="7.094498051167614" x="0" y="190.8612172353728" fill="#374151" opacity="1" stroke-width="0" stroke="transparent" fill-opacity="1" class="rect-o-0" data-fill-palette-color="primary" rx="1%" id="o-0" data-palette-color="#374151"></rect></g><g transform="matrix(1,0,0,1,0.9887999999999693,216.52769971368076)"><svg viewBox="0 0 395.52 124.66659392780929" height="124.66659392780929" width="395.52"><g id="textblocktransform"><svg viewBox="0 0 395.52 124.66659392780929" height="124.66659392780929" width="395.52" id="textblock"><g><svg viewBox="0 0 395.52 78.66951501694518" height="78.66951501694518" width="395.52"><g transform="matrix(1,0,0,1,0,0)"><svg width="395.52" viewBox="3.1700000762939453 -36.040000915527344 208.90000915527344 41.560001373291016" height="78.66951501694518" data-palette-color="#374151"><path d="M24.56-21.14L24.56-15.41 10.5-15.41 10.5-5.88 27-5.88 27 0 3.17 0 3.17-35.55 26.95-35.55 26.95-29.61 10.5-29.61 10.5-21.14 24.56-21.14ZM50.39 0L50.39 5.52 28.15 5.52 28.15 0 50.39 0ZM67.43 0L53.61 0 53.61-35.55 66.06-35.55Q72.53-35.55 75.87-33.07 79.22-30.59 79.22-25.81L79.22-25.81Q79.22-23.19 77.88-21.2 76.53-19.21 74.14-18.29L74.14-18.29Q76.87-17.6 78.45-15.53 80.02-13.45 80.02-10.45L80.02-10.45Q80.02-5.32 76.75-2.69 73.48-0.05 67.43 0L67.43 0ZM67.65-15.48L60.93-15.48 60.93-5.88 67.21-5.88Q69.79-5.88 71.25-7.12 72.7-8.35 72.7-10.52L72.7-10.52Q72.7-15.41 67.65-15.48L67.65-15.48ZM60.93-29.61L60.93-20.65 66.35-20.65Q71.89-20.75 71.89-25.07L71.89-25.07Q71.89-27.49 70.49-28.55 69.09-29.61 66.06-29.61L66.06-29.61 60.93-29.61ZM114.71-18.55L114.71-16.97Q114.71-11.72 112.86-7.76 111-3.81 107.55-1.66 104.09 0.49 99.63 0.49L99.63 0.49Q95.21 0.49 91.74-1.64 88.27-3.76 86.37-7.7 84.47-11.65 84.44-16.77L84.44-16.77 84.44-18.53Q84.44-23.78 86.33-27.77 88.22-31.76 91.68-33.9 95.13-36.04 99.58-36.04 104.02-36.04 107.48-33.9 110.93-31.76 112.82-27.77 114.71-23.78 114.71-18.55L114.71-18.55ZM107.29-16.85L107.29-18.58Q107.29-24.17 105.29-27.08 103.29-29.98 99.58-29.98L99.58-29.98Q95.89-29.98 93.89-27.11 91.89-24.24 91.86-18.7L91.86-18.7 91.86-16.97Q91.86-11.52 93.86-8.52 95.87-5.52 99.63-5.52L99.63-5.52Q103.31-5.52 105.29-8.41 107.27-11.3 107.29-16.85L107.29-16.85ZM149.23-18.55L149.23-16.97Q149.23-11.72 147.38-7.76 145.52-3.81 142.07-1.66 138.61 0.49 134.15 0.49L134.15 0.49Q129.73 0.49 126.26-1.64 122.79-3.76 120.89-7.7 118.98-11.65 118.96-16.77L118.96-16.77 118.96-18.53Q118.96-23.78 120.85-27.77 122.74-31.76 126.2-33.9 129.65-36.04 134.1-36.04 138.54-36.04 141.99-33.9 145.45-31.76 147.34-27.77 149.23-23.78 149.23-18.55L149.23-18.55ZM141.81-16.85L141.81-18.58Q141.81-24.17 139.81-27.08 137.81-29.98 134.1-29.98L134.1-29.98Q130.41-29.98 128.41-27.11 126.41-24.24 126.38-18.7L126.38-18.7 126.38-16.97Q126.38-11.52 128.38-8.52 130.39-5.52 134.15-5.52L134.15-5.52Q137.83-5.52 139.81-8.41 141.79-11.3 141.81-16.85L141.81-16.85ZM174.82 0L165.69-14.26 161.88-10.16 161.88 0 154.55 0 154.55-35.55 161.88-35.55 161.88-19.43 165.1-23.85 174.16-35.55 183.17-35.55 170.54-19.75 183.53 0 174.82 0ZM204.72-9.33L204.72-9.33Q204.72-11.4 203.26-12.51 201.79-13.62 197.98-14.86 194.17-16.09 191.95-17.29L191.95-17.29Q185.9-20.56 185.9-26.1L185.9-26.1Q185.9-28.98 187.52-31.24 189.15-33.5 192.18-34.77 195.22-36.04 199.01-36.04L199.01-36.04Q202.82-36.04 205.8-34.66 208.77-33.28 210.42-30.76 212.07-28.25 212.07-25.05L212.07-25.05 204.75-25.05Q204.75-27.49 203.21-28.85 201.67-30.2 198.89-30.2L198.89-30.2Q196.2-30.2 194.71-29.06 193.22-27.93 193.22-26.07L193.22-26.07Q193.22-24.34 194.97-23.17 196.71-22 200.11-20.97L200.11-20.97Q206.36-19.09 209.21-16.31 212.07-13.53 212.07-9.38L212.07-9.38Q212.07-4.76 208.58-2.14 205.09 0.49 199.18 0.49L199.18 0.49Q195.08 0.49 191.71-1.01 188.34-2.51 186.57-5.13 184.8-7.74 184.8-11.18L184.8-11.18 192.15-11.18Q192.15-5.3 199.18-5.3L199.18-5.3Q201.79-5.3 203.26-6.36 204.72-7.42 204.72-9.33Z" opacity="1" transform="matrix(1,0,0,1,0,0)" fill="#374151" class="wordmark-text-0" data-fill-palette-color="primary" id="text-0"></path></svg></g></svg></g><g transform="matrix(1,0,0,1,75.54432,97.24149944408553)"><svg viewBox="0 0 244.43135999999998 27.425094483723758" height="27.425094483723758" width="244.43135999999998"><g transform="matrix(1,0,0,1,0,0)"><svg width="244.43135999999998" viewBox="1.2950000762939453 -33.939998626708984 401.1949768066406 45.019996643066406" height="27.425094483723758" data-palette-color="#374151"><path d="M14.5-33.94L14.5-33.94Q18.02-33.94 19.14-32.03L19.14-32.03Q19.14-28.96 17.38-28.96L17.38-28.96Q16.75-28.96 16.16-29.71 15.58-30.47 14.82-31.25 14.06-32.03 12.99-32.03L12.99-32.03Q10.84-32.03 9.67-29.39 8.5-26.76 8.5-23.19L8.5-23.19 8.5-20.7Q8.5-20.46 8.74-20.46L8.74-20.46 14.16-20.46Q14.4-20.46 14.4-20.12L14.4-20.12Q14.4-19.34 13.82-18.16L13.82-18.16 8.79-18.16Q8.5-18.16 8.5-17.87L8.5-17.87 8.5-6.59Q8.5-3.96 8.94-2.25L8.94-2.25Q9.03-1.9 10.13-1.59 11.23-1.27 11.67-1.27L11.67-1.27Q11.82-1.27 11.87-0.68 11.91-0.1 11.82 0.15L11.82 0.15Q6.93-0.1 6.59-0.1L6.59-0.1Q6.45-0.1 1.46 0.15L1.46 0.15Q1.37 0.05 1.32-0.32 1.27-0.68 1.32-0.98 1.37-1.27 1.46-1.27L1.46-1.27Q2.05-1.27 3.13-1.59 4.2-1.9 4.3-2.25L4.3-2.25Q4.79-4.15 4.79-6.59L4.79-6.59 4.79-17.82Q4.79-18.16 4.54-18.16L4.54-18.16 1.95-18.16Q1.81-18.16 1.81-18.46L1.81-18.46Q1.81-18.9 2.59-19.68 3.37-20.46 4.25-20.46L4.25-20.46 4.54-20.46Q4.79-20.46 4.79-20.75L4.79-20.75 4.79-21.39Q4.79-26.51 7.84-30.22 10.89-33.94 14.5-33.94ZM19.55-27.22Q18.85-27.93 18.85-28.96 18.85-29.98 19.55-30.69 20.26-31.4 21.29-31.4 22.31-31.4 23.02-30.69 23.73-29.98 23.73-28.96 23.73-27.93 23.02-27.22 22.31-26.51 21.29-26.51 20.26-26.51 19.55-27.22ZM23.53-16.65L23.53-6.59Q23.53-3.76 23.92-2.25L23.92-2.25Q24.02-1.9 25.19-1.59 26.36-1.27 26.85-1.27L26.85-1.27Q27-1.27 27.05-0.68 27.1-0.1 27 0.15L27 0.15Q22.12-0.1 21.77-0.1 21.43-0.1 16.45 0.15L16.45 0.15Q16.26-0.05 16.26-0.66 16.26-1.27 16.45-1.27L16.45-1.27Q17.04-1.27 18.19-1.59 19.33-1.9 19.43-2.25L19.43-2.25Q19.77-3.66 19.77-5.66L19.77-5.66 19.77-14.89Q19.77-16.8 19.09-17.53L19.09-17.53Q18.6-18.12 17.89-18.33 17.19-18.55 16.72-18.55 16.26-18.55 16.26-18.65L16.26-18.65Q16.26-19.82 16.55-19.87L16.55-19.87Q21.73-20.65 23.29-21.14L23.29-21.14 23.39-21.19Q23.48-21.19 23.53-21.19L23.53-21.19Q23.73-21.19 23.78-20.78 23.83-20.36 23.78-20.17L23.78-20.17Q23.53-18.21 23.53-16.65L23.53-16.65ZM43.55-21.39L43.55-21.39Q46.97-21.39 48.33-18.95 49.7-16.5 49.7-11.04L49.7-11.04 49.7-6.59Q49.7-3.76 50.09-2.25L50.09-2.25Q50.19-1.9 51.36-1.59 52.53-1.27 53.02-1.27L53.02-1.27Q53.17-1.27 53.22-0.68 53.27-0.1 53.17 0.15L53.17 0.15Q48.29-0.1 47.94-0.1L47.94-0.1Q47.85-0.1 42.82 0.15L42.82 0.15Q42.62-0.05 42.62-0.66 42.62-1.27 42.82-1.27L42.82-1.27Q43.4-1.27 44.45-1.59 45.5-1.9 45.6-2.25L45.6-2.25Q45.94-3.66 45.94-5.66L45.94-5.66 45.94-10.55Q45.94-15.09 44.77-16.75 43.6-18.41 40.96-18.41L40.96-18.41Q39.4-18.41 37.96-17.26 36.52-16.11 36.52-15.19L36.52-15.19 36.52-6.59Q36.52-3.76 36.91-2.25L36.91-2.25Q37.01-1.9 38.18-1.59 39.35-1.27 39.84-1.27L39.84-1.27Q39.99-1.27 40.03-0.68 40.08-0.1 39.99 0.15L39.99 0.15Q35.1-0.1 34.76-0.1L34.76-0.1Q34.47-0.1 29.44 0.15L29.44 0.15Q29.24-0.05 29.24-0.66 29.24-1.27 29.44-1.27L29.44-1.27Q30.02-1.27 31.17-1.59 32.32-1.9 32.42-2.25L32.42-2.25Q32.76-3.66 32.76-5.66L32.76-5.66 32.76-14.89Q32.76-16.8 32.08-17.53L32.08-17.53Q31.59-18.12 30.88-18.33 30.17-18.55 29.71-18.55 29.24-18.55 29.24-18.65L29.24-18.65Q29.24-19.82 29.54-19.87L29.54-19.87Q34.71-20.65 36.27-21.14L36.27-21.14Q36.32-21.14 36.42-21.17 36.52-21.19 36.52-21.19L36.52-21.19Q36.71-21.19 36.76-20.78 36.81-20.36 36.76-20.17L36.76-20.17Q36.57-18.8 36.57-18.21L36.57-18.21Q36.57-18.02 36.66-18.02L36.66-18.02Q36.71-18.02 36.81-18.12L36.81-18.12Q37.93-19.29 39.86-20.34 41.79-21.39 43.55-21.39ZM66.45-19.43L66.45-19.43Q63.62-19.43 62-16.89 60.39-14.36 60.39-10.99L60.39-10.99Q60.39-7.42 62.3-4.81 64.2-2.2 67.57-2.2L67.57-2.2Q69.23-2.2 70.16-2.95 71.09-3.71 71.09-4.98L71.09-4.98 71.09-16.6Q71.09-17.63 69.99-18.53 68.89-19.43 66.45-19.43ZM67.08-21.48L67.08-21.48Q69.18-21.48 70.74-20.65L70.74-20.65Q71.09-20.65 71.09-21.53L71.09-21.53 71.09-26.81Q71.09-28.47 70.79-29.93L70.79-29.93Q70.55-30.71 68.3-30.71L68.3-30.71 67.86-30.71Q67.57-30.71 67.57-31.25L67.57-31.25Q67.57-32.03 67.86-32.03L67.86-32.03Q69.33-32.18 70.57-32.42 71.82-32.67 72.53-32.91 73.23-33.15 73.72-33.37 74.21-33.59 74.46-33.74L74.46-33.74 74.65-33.89 74.75-33.89Q74.94-33.89 75.14-33.62 75.33-33.35 75.38-33.11L75.38-33.11Q74.85-31.54 74.85-28.86L74.85-28.86 74.85-6.88Q74.85-4.54 75.14-3.17L75.14-3.17Q75.24-2.83 75.68-2.64 76.12-2.44 76.58-2.39 77.04-2.34 77.48-2.34L77.48-2.34 77.92-2.29Q78.07-2.25 78.07-1.71L78.07-1.71Q78.07-0.98 77.78-0.98L77.78-0.98Q77.04-0.93 76.14-0.78 75.24-0.63 74.43-0.46 73.63-0.29 72.94-0.12 72.26 0.05 71.82 0.2L71.82 0.2 71.38 0.29Q71.09 0.29 71.09-0.54L71.09-0.54 71.09-1.12Q71.09-1.42 70.89-1.32L70.89-1.32Q68.16 0.2 65.72 0.2L65.72 0.2Q61.66 0.2 58.93-2.69 56.19-5.57 56.19-9.57L56.19-9.57Q56.19-14.31 59.54-17.9 62.88-21.48 67.08-21.48ZM100.77-19.48L100.77-19.48Q98.23-19.48 96.89-17.31 95.54-15.14 95.54-13.72L95.54-13.72Q95.54-13.38 95.84-13.38L95.84-13.38 105.36-13.38Q105.6-13.38 105.6-13.87L105.6-13.87Q105.6-15.43 104.28-17.46 102.97-19.48 100.77-19.48ZM101.26-21.29L101.26-21.29Q103.5-21.29 105.21-20.43 106.92-19.58 107.82-18.24 108.73-16.89 109.14-15.5 109.56-14.11 109.56-12.74L109.56-12.74Q109.56-11.77 109.26-11.55 108.97-11.33 108.14-11.33L108.14-11.33 95.84-11.33Q95.45-11.33 95.45-11.08L95.45-11.08Q95.45-8.01 97.3-5.42 99.16-2.83 102.67-2.83L102.67-2.83Q103.7-2.83 104.63-3.03 105.55-3.22 106.21-3.49 106.87-3.76 107.34-4.03 107.8-4.3 108.14-4.54L108.14-4.54 108.48-4.79Q108.78-4.79 108.78-4.15L108.78-4.15Q108.78-3.76 108.48-3.27L108.48-3.27Q107.51-1.9 105.6-0.81 103.7 0.29 101.45 0.29L101.45 0.29Q97.4 0.29 94.49-2.76 91.59-5.81 91.59-10.21L91.59-10.21Q91.59-15.33 94.35-18.31 97.11-21.29 101.26-21.29ZM129.48-18.21L129.48-18.21Q129.48-19.78 125.96-19.78L125.96-19.78Q125.77-19.78 125.77-20.39 125.77-21 125.96-21.19L125.96-21.19Q126.5-21.14 127.96-21.04 129.43-20.95 130.6-20.95L130.6-20.95 135.48-21.19Q135.58-20.9 135.58-20.46L135.58-20.46Q135.58-19.78 135.24-19.78L135.24-19.78Q134.56-19.78 133.43-19.38 132.31-18.99 131.92-18.12L131.92-18.12 124.15-0.59Q124.06-0.24 123.57 0.15 123.08 0.54 122.74 0.54 122.4 0.54 122.3 0.34L122.3 0.34Q121.47-1.46 118.66-8.06 115.85-14.65 113.75-18.8L113.75-18.8Q113.27-19.78 110.87-19.78L110.87-19.78Q110.68-19.78 110.68-20.41L110.68-20.41Q110.68-21 110.87-21.19L110.87-21.19Q115.9-20.95 115.95-20.95L115.95-20.95 120.83-21.19Q120.93-21 120.86-20.39 120.79-19.78 120.64-19.78L120.64-19.78Q118.25-19.78 118.25-18.95L118.25-18.95Q118.25-18.85 118.3-18.75L118.3-18.75 124.15-5.52 129.09-16.75Q129.48-17.68 129.48-18.21ZM145.83-19.48L145.83-19.48Q143.29-19.48 141.95-17.31 140.61-15.14 140.61-13.72L140.61-13.72Q140.61-13.38 140.9-13.38L140.9-13.38 150.42-13.38Q150.67-13.38 150.67-13.87L150.67-13.87Q150.67-15.43 149.35-17.46 148.03-19.48 145.83-19.48ZM146.32-21.29L146.32-21.29Q148.57-21.29 150.28-20.43 151.98-19.58 152.89-18.24 153.79-16.89 154.21-15.5 154.62-14.11 154.62-12.74L154.62-12.74Q154.62-11.77 154.33-11.55 154.04-11.33 153.21-11.33L153.21-11.33 140.9-11.33Q140.51-11.33 140.51-11.08L140.51-11.08Q140.51-8.01 142.37-5.42 144.22-2.83 147.74-2.83L147.74-2.83Q148.76-2.83 149.69-3.03 150.62-3.22 151.28-3.49 151.94-3.76 152.4-4.03 152.86-4.3 153.21-4.54L153.21-4.54 153.55-4.79Q153.84-4.79 153.84-4.15L153.84-4.15Q153.84-3.76 153.55-3.27L153.55-3.27Q152.57-1.9 150.67-0.81 148.76 0.29 146.52 0.29L146.52 0.29Q142.46 0.29 139.56-2.76 136.65-5.81 136.65-10.21L136.65-10.21Q136.65-15.33 139.41-18.31 142.17-21.29 146.32-21.29ZM170.15-21.34L170.15-21.34Q173.03-21.34 173.95-19.92L173.95-19.92Q173.95-18.21 173.42-17.43 172.88-16.65 172.1-16.65L172.1-16.65Q171.22-16.65 170.49-17.48 169.76-18.31 168.49-18.31L168.49-18.31Q166.97-18.31 165.85-16.89 164.73-15.48 164.73-13.92L164.73-13.92 164.73-6.59Q164.73-3.76 165.12-2.25L165.12-2.25Q165.21-1.9 166.41-1.59 167.61-1.27 168.1-1.27L168.1-1.27Q168.24-1.27 168.29-0.68 168.34-0.1 168.24 0.15L168.24 0.15Q163.36-0.1 162.97-0.1L162.97-0.1Q162.68-0.1 157.65 0.15L157.65 0.15Q157.45-0.05 157.45-0.66 157.45-1.27 157.65-1.27L157.65-1.27Q158.23-1.27 159.38-1.59 160.53-1.9 160.62-2.25L160.62-2.25Q160.97-3.66 160.97-5.66L160.97-5.66 160.97-14.89Q160.97-16.8 160.28-17.53L160.28-17.53Q159.79-18.12 159.09-18.33 158.38-18.55 157.91-18.55 157.45-18.55 157.45-18.65L157.45-18.65Q157.45-19.82 157.74-19.87L157.74-19.87Q162.92-20.65 164.48-21.14L164.48-21.14Q164.53-21.14 164.63-21.17 164.73-21.19 164.73-21.19L164.73-21.19Q164.92-21.19 164.97-20.78 165.02-20.36 164.97-20.17L164.97-20.17 164.68-17.72Q165.56-19.04 167.09-20.19 168.63-21.34 170.15-21.34ZM179.96-20.95L179.96-20.95Q180.79-20.95 181.5-21 182.2-21.04 183.11-21.09 184.01-21.14 184.69-21.19L184.69-21.19Q184.79-20.9 184.79-20.46L184.79-20.46Q184.79-19.78 184.6-19.78L184.6-19.78Q184.21-19.78 183.3-19.43 182.4-19.09 182.3-18.75L182.3-18.75 182.3-18.65Q182.3-17.77 187.53-5.91L187.53-5.91 191.24-16.6Q191.58-17.63 191.58-18.12L191.58-18.12Q191.58-18.85 190.82-19.31 190.07-19.78 188.8-19.78L188.8-19.78Q188.6-19.78 188.6-20.41L188.6-20.41Q188.6-21 188.8-21.19L188.8-21.19Q189.43-21.14 190.7-21.04 191.97-20.95 193.14-20.95L193.14-20.95Q194.22-20.95 195.49-21.04 196.75-21.14 197.39-21.19L197.39-21.19Q197.49-20.9 197.49-20.46L197.49-20.46Q197.49-19.78 197.29-19.78L197.29-19.78Q196.66-19.78 195.56-19.34 194.46-18.9 194.12-17.92L194.12-17.92 185.38 5.66Q184.25 8.69 182.84 9.89 181.42 11.08 180.25 11.08L180.25 11.08Q179.23 11.08 178.74 10.45 178.25 9.81 178.25 9.18L178.25 9.18Q178.25 8.11 178.93 7.62L178.93 7.62Q182.99 7.62 184.3 3.42L184.3 3.42Q184.55 2.69 184.89 1.66 185.23 0.63 185.43 0L185.43 0 178.44-17.09Q177.91-18.26 177.47-18.75L177.47-18.75Q177.03-19.19 176.12-19.48 175.22-19.78 174.68-19.78L174.68-19.78Q174.49-19.78 174.49-20.41L174.49-20.41Q174.49-21 174.68-21.19L174.68-21.19Q179.71-20.95 179.96-20.95ZM220.24-21.39L220.24-21.39Q224.92-21.39 227.58-18.19 230.25-14.99 230.25-11.38L230.25-11.38Q230.25-6.74 226.8-3.22 223.36 0.29 219.21 0.29L219.21 0.29Q217.4 0.29 215.77-0.02 214.13-0.34 213.89-0.34L213.89-0.34Q213.45-0.34 212.79-0.07 212.13 0.2 212.03 0.2L212.03 0.2Q211.84 0.2 211.42 0.05 211.01-0.1 211.01-0.29L211.01-0.29Q211.01-0.34 211.15-1.1 211.3-1.86 211.45-3.32 211.59-4.79 211.59-6.59L211.59-6.59 211.59-26.81Q211.59-28.47 211.3-29.93L211.3-29.93Q211.06-30.71 208.81-30.71L208.81-30.71 208.37-30.71Q208.08-30.71 208.08-31.25L208.08-31.25Q208.08-32.03 208.37-32.03L208.37-32.03Q209.84-32.18 211.08-32.42 212.33-32.67 213.03-32.91 213.74-33.15 214.23-33.37 214.72-33.59 214.96-33.74L214.96-33.74 215.16-33.89 215.26-33.89Q215.45-33.89 215.65-33.62 215.84-33.35 215.89-33.11L215.89-33.11Q215.35-31.54 215.35-28.86L215.35-28.86 215.35-20.31Q215.35-19.78 215.5-19.78L215.5-19.78Q215.55-19.78 215.65-19.82L215.65-19.82Q216.33-20.31 217.75-20.85 219.16-21.39 220.24-21.39ZM218.67-18.99L218.67-18.99Q217.31-18.99 216.33-18.24 215.35-17.48 215.35-16.06L215.35-16.06 215.35-4.69Q215.35-3.17 216.79-2.47 218.23-1.76 220.14-1.76L220.14-1.76Q222.92-1.76 224.48-4.39 226.05-7.03 226.05-10.35L226.05-10.35Q226.05-14.21 224.02-16.6 221.99-18.99 218.67-18.99ZM243.96-19.43L243.96-19.43Q241.38-19.43 239.74-17.07 238.1-14.7 238.1-11.28L238.1-11.28Q238.1-7.28 240.18-4.42 242.26-1.56 245.04-1.56L245.04-1.56Q247.63-1.56 249.29-4 250.95-6.45 250.95-9.86L250.95-9.86Q250.95-13.82 248.85-16.63 246.75-19.43 243.96-19.43ZM244.5-21.34L244.5-21.34Q248.9-21.34 252.02-18.16 255.15-14.99 255.15-10.55L255.15-10.55Q255.15-6.05 252.09-2.86 249.04 0.34 244.6 0.34 240.16 0.34 237.03-2.86 233.91-6.05 233.91-10.55L233.91-10.55Q233.91-15.09 236.93-18.21 239.96-21.34 244.5-21.34ZM268.86-19.43L268.86-19.43Q266.28-19.43 264.64-17.07 263-14.7 263-11.28L263-11.28Q263-7.28 265.08-4.42 267.16-1.56 269.94-1.56L269.94-1.56Q272.53-1.56 274.19-4 275.85-6.45 275.85-9.86L275.85-9.86Q275.85-13.82 273.75-16.63 271.65-19.43 268.86-19.43ZM269.4-21.34L269.4-21.34Q273.8-21.34 276.92-18.16 280.05-14.99 280.05-10.55L280.05-10.55Q280.05-6.05 276.99-2.86 273.94 0.34 269.5 0.34 265.06 0.34 261.93-2.86 258.81-6.05 258.81-10.55L258.81-10.55Q258.81-15.09 261.83-18.21 264.86-21.34 269.4-21.34ZM300.8-17.97L300.8-17.97Q299.97-17.48 297.62-15.65 295.28-13.82 293.57-12.06L293.57-12.06Q294.98-10.55 297.04-8.23 299.09-5.91 300.4-4.47 301.72-3.03 302.21-2.59L302.21-2.59Q303.04-1.9 304.31-1.54 305.58-1.17 306.12-1.17L306.12-1.17Q306.31-1.17 306.31-0.39L306.31-0.39Q306.31 0.05 306.26 0.15L306.26 0.15Q301.38-0.1 300.94-0.1L300.94-0.1Q300.84-0.1 295.86 0.15L295.86 0.15Q295.67-0.05 295.67-0.61 295.67-1.17 295.86-1.17L295.86-1.17Q296.35-1.17 296.99-1.37 297.62-1.56 297.62-1.81L297.62-1.81Q297.62-1.9 297.57-1.95L297.57-1.95 290.44-9.67 289.86-9.52 289.86-6.59Q289.96-3.37 290.25-2.25L290.25-2.25Q290.35-1.9 291.52-1.59 292.69-1.27 293.18-1.27L293.18-1.27Q293.32-1.27 293.37-0.68 293.42-0.1 293.32 0.15L293.32 0.15Q288.44-0.1 288.1-0.1L288.1-0.1Q287.81-0.1 282.78 0.15L282.78 0.15Q282.58-0.05 282.58-0.66 282.58-1.27 282.78-1.27L282.78-1.27Q283.36-1.27 284.51-1.59 285.66-1.9 285.76-2.25L285.76-2.25Q286.1-3.66 286.1-5.66L286.1-5.66 286.1-26.81Q286.1-28.47 285.8-29.93L285.8-29.93Q285.56-30.71 283.31-30.71L283.31-30.71 282.88-30.71Q282.58-30.71 282.58-31.25L282.58-31.25Q282.58-32.03 282.88-32.03L282.88-32.03Q284.34-32.18 285.59-32.42 286.83-32.67 287.54-32.91 288.25-33.15 288.73-33.37 289.22-33.59 289.42-33.74L289.42-33.74 289.66-33.89 289.76-33.89Q289.96-33.89 290.15-33.62 290.35-33.35 290.39-33.11L290.39-33.11Q289.86-31.54 289.86-28.86L289.86-28.86 289.86-11.77Q290.88-12.01 291.08-12.21L291.08-12.21Q292.15-13.13 293.32-14.11 294.5-15.09 295.08-15.58 295.67-16.06 296.21-16.55 296.74-17.04 296.94-17.33 297.13-17.63 297.13-17.92L297.13-17.92Q297.13-18.51 296.06-18.6 294.98-18.7 294.94-18.8L294.94-18.8Q294.59-19.78 294.98-19.92L294.98-19.92 298.84-19.92Q299.57-19.92 300.38-19.97 301.19-20.02 302.28-20.07 303.38-20.12 304.21-20.17L304.21-20.17Q304.41-20.07 304.43-19.73 304.46-19.38 304.36-19.09 304.26-18.8 304.16-18.8L304.16-18.8Q303.53-18.8 302.36-18.51 301.19-18.21 300.8-17.97ZM332.53-21.39L332.53-21.39Q335.8-21.39 337.22-19.04 338.63-16.7 338.63-11.82L338.63-11.82 338.63-6.54Q338.63-3.76 339.02-2.25L339.02-2.25Q339.12-1.9 340.29-1.59 341.46-1.27 341.95-1.27L341.95-1.27Q342.1-1.27 342.15-0.68 342.2-0.1 342.1 0.15L342.1 0.15Q337.22-0.1 336.87-0.1L336.87-0.1Q336.73-0.1 331.75 0.15L331.75 0.15Q331.55-0.05 331.55-0.66 331.55-1.27 331.75-1.27L331.75-1.27Q332.33-1.27 333.38-1.59 334.43-1.9 334.53-2.25L334.53-2.25Q334.87-3.66 334.87-5.66L334.87-5.66 334.87-10.84Q334.87-15.33 333.63-16.87 332.38-18.41 329.79-18.41L329.79-18.41Q328.33-18.41 326.89-17.26 325.45-16.11 325.45-15.23L325.45-15.23 325.45-6.59Q325.45-3.76 325.84-2.25L325.84-2.25Q325.94-1.9 327.11-1.59 328.28-1.27 328.77-1.27L328.77-1.27Q328.92-1.27 328.96-0.68 329.01-0.1 328.92 0.15L328.92 0.15Q324.03-0.1 323.69-0.1L323.69-0.1Q323.4-0.1 318.37 0.15L318.37 0.15Q318.17-0.05 318.17-0.66 318.17-1.27 318.37-1.27L318.37-1.27Q318.95-1.27 320.1-1.59 321.25-1.9 321.35-2.25L321.35-2.25Q321.69-3.66 321.69-5.62L321.69-5.62 321.69-26.81Q321.69-28.47 321.4-29.93L321.4-29.93Q321.15-30.71 318.91-30.71L318.91-30.71 318.47-30.71Q318.17-30.71 318.17-31.25L318.17-31.25Q318.17-32.03 318.47-32.03L318.47-32.03Q319.93-32.18 321.18-32.42 322.42-32.67 323.13-32.91 323.84-33.15 324.33-33.37 324.81-33.59 325.01-33.74L325.01-33.74 325.25-33.89 325.35-33.89Q325.55-33.89 325.74-33.62 325.94-33.35 325.99-33.11L325.99-33.11Q325.45-31.54 325.45-28.86L325.45-28.86 325.45-18.16Q325.45-17.97 325.55-17.97L325.55-17.97Q325.59-17.97 325.69-18.07L325.69-18.07Q326.77-19.24 328.74-20.31 330.72-21.39 332.53-21.39ZM354.16-19.48L354.16-19.48Q351.62-19.48 350.27-17.31 348.93-15.14 348.93-13.72L348.93-13.72Q348.93-13.38 349.23-13.38L349.23-13.38 358.75-13.38Q358.99-13.38 358.99-13.87L358.99-13.87Q358.99-15.43 357.67-17.46 356.35-19.48 354.16-19.48ZM354.65-21.29L354.65-21.29Q356.89-21.29 358.6-20.43 360.31-19.58 361.21-18.24 362.12-16.89 362.53-15.5 362.95-14.11 362.95-12.74L362.95-12.74Q362.95-11.77 362.65-11.55 362.36-11.33 361.53-11.33L361.53-11.33 349.23-11.33Q348.83-11.33 348.83-11.08L348.83-11.08Q348.83-8.01 350.69-5.42 352.55-2.83 356.06-2.83L356.06-2.83Q357.09-2.83 358.01-3.03 358.94-3.22 359.6-3.49 360.26-3.76 360.72-4.03 361.19-4.3 361.53-4.54L361.53-4.54 361.87-4.79Q362.16-4.79 362.16-4.15L362.16-4.15Q362.16-3.76 361.87-3.27L361.87-3.27Q360.9-1.9 358.99-0.81 357.09 0.29 354.84 0.29L354.84 0.29Q350.79 0.29 347.88-2.76 344.98-5.81 344.98-10.21L344.98-10.21Q344.98-15.33 347.74-18.31 350.49-21.29 354.65-21.29ZM378.47-21.34L378.47-21.34Q381.35-21.34 382.28-19.92L382.28-19.92Q382.28-18.21 381.74-17.43 381.21-16.65 380.42-16.65L380.42-16.65Q379.54-16.65 378.81-17.48 378.08-18.31 376.81-18.31L376.81-18.31Q375.3-18.31 374.17-16.89 373.05-15.48 373.05-13.92L373.05-13.92 373.05-6.59Q373.05-3.76 373.44-2.25L373.44-2.25Q373.54-1.9 374.74-1.59 375.93-1.27 376.42-1.27L376.42-1.27Q376.57-1.27 376.62-0.68 376.66-0.1 376.57 0.15L376.57 0.15Q371.68-0.1 371.29-0.1L371.29-0.1Q371-0.1 365.97 0.15L365.97 0.15Q365.78-0.05 365.78-0.66 365.78-1.27 365.97-1.27L365.97-1.27Q366.56-1.27 367.7-1.59 368.85-1.9 368.95-2.25L368.95-2.25Q369.29-3.66 369.29-5.66L369.29-5.66 369.29-14.89Q369.29-16.8 368.61-17.53L368.61-17.53Q368.12-18.12 367.41-18.33 366.7-18.55 366.24-18.55 365.78-18.55 365.78-18.65L365.78-18.65Q365.78-19.82 366.07-19.87L366.07-19.87Q371.24-20.65 372.81-21.14L372.81-21.14Q372.86-21.14 372.95-21.17 373.05-21.19 373.05-21.19L373.05-21.19Q373.25-21.19 373.29-20.78 373.34-20.36 373.29-20.17L373.29-20.17 373-17.72Q373.88-19.04 375.42-20.19 376.96-21.34 378.47-21.34ZM393.7-19.48L393.7-19.48Q391.16-19.48 389.82-17.31 388.48-15.14 388.48-13.72L388.48-13.72Q388.48-13.38 388.77-13.38L388.77-13.38 398.29-13.38Q398.54-13.38 398.54-13.87L398.54-13.87Q398.54-15.43 397.22-17.46 395.9-19.48 393.7-19.48ZM394.19-21.29L394.19-21.29Q396.44-21.29 398.15-20.43 399.85-19.58 400.76-18.24 401.66-16.89 402.08-15.5 402.49-14.11 402.49-12.74L402.49-12.74Q402.49-11.77 402.2-11.55 401.91-11.33 401.08-11.33L401.08-11.33 388.77-11.33Q388.38-11.33 388.38-11.08L388.38-11.08Q388.38-8.01 390.24-5.42 392.09-2.83 395.61-2.83L395.61-2.83Q396.63-2.83 397.56-3.03 398.49-3.22 399.15-3.49 399.81-3.76 400.27-4.03 400.73-4.3 401.08-4.54L401.08-4.54 401.42-4.79Q401.71-4.79 401.71-4.15L401.71-4.15Q401.71-3.76 401.42-3.27L401.42-3.27Q400.44-1.9 398.54-0.81 396.63 0.29 394.39 0.29L394.39 0.29Q390.33 0.29 387.43-2.76 384.52-5.81 384.52-10.21L384.52-10.21Q384.52-15.33 387.28-18.31 390.04-21.29 394.19-21.29Z" opacity="1" transform="matrix(1,0,0,1,0,0)" fill="#374151" class="slogan-text-1" data-fill-palette-color="secondary" id="text-1"></path></svg></g></svg></g></svg></g></svg></g><g transform="matrix(1,0,0,1,119.73471589355375,0)"><svg viewBox="0 0 158.0281682128924 172.28923280823244" height="172.28923280823244" width="158.0281682128924"><g><svg xmlns="http://www.w3.org/2000/svg" xmlns:xlink="http://www.w3.org/1999/xlink" version="1.1" x="0" y="0" viewBox="8.724258422851562 4.999500274658203 82.5508041381836 90.00050354003906" enable-background="new 0 0 100 100" xml:space="preserve" height="172.28923280823244" width="158.0281682128924" class="icon-icon-0" data-fill-palette-color="accent" id="icon-0"><path fill="#374151" d="M91.244 32.965c-0.005-0.022-0.014-0.043-0.021-0.064-0.018-0.058-0.04-0.112-0.067-0.165-0.011-0.021-0.021-0.04-0.033-0.061-0.04-0.063-0.084-0.124-0.137-0.178-0.003-0.004-0.005-0.007-0.008-0.01-0.057-0.057-0.12-0.104-0.188-0.145-0.008-0.006-0.015-0.013-0.022-0.018L43.674 5.136c-0.314-0.182-0.702-0.182-1.018 0L9.362 24.369c-0.008 0.005-0.015 0.013-0.023 0.018-0.068 0.042-0.132 0.089-0.188 0.145-0.002 0.003-0.005 0.007-0.007 0.01-0.053 0.054-0.098 0.115-0.137 0.18-0.012 0.02-0.022 0.039-0.033 0.06-0.027 0.053-0.05 0.107-0.068 0.165-0.007 0.022-0.014 0.042-0.02 0.064-0.019 0.078-0.032 0.158-0.032 0.241v11.216c0 0.362 0.193 0.697 0.506 0.88l4.008 2.314-2.25 1.3-0.014 0.008c-0.088 0.051-0.164 0.117-0.231 0.19-0.006 0.007-0.016 0.011-0.021 0.018-1.667 1.924-3.811 6.725 0 11.124 0.007 0.008 0.017 0.013 0.024 0.02 0.065 0.071 0.139 0.137 0.227 0.188 0 0 0.001 0.001 0.001 0.002l2.412 1.393-3.034 1.751c-0.306 0.176-0.494 0.503-0.494 0.855s0.188 0.679 0.494 0.855l3.262 1.883-3.261 1.883c-0.306 0.177-0.494 0.502-0.494 0.855 0 0.353 0.188 0.679 0.493 0.855l3.264 1.884-3.263 1.884c-0.306 0.177-0.494 0.502-0.494 0.855 0 0.353 0.188 0.679 0.494 0.855l45.981 26.548C56.616 94.955 56.786 95 56.956 95c0.171 0 0.341-0.045 0.494-0.133l32.514-18.771c0.306-0.176 0.494-0.502 0.494-0.855 0-0.353-0.188-0.679-0.494-0.855l-3.263-1.884 3.263-1.884c0.306-0.177 0.494-0.502 0.494-0.855 0-0.353-0.188-0.679-0.494-0.855l-3.262-1.883 3.262-1.883c0.306-0.176 0.494-0.502 0.494-0.854 0-0.354-0.188-0.68-0.494-0.855l-2.413-1.393 3.035-1.753c0.306-0.177 0.494-0.503 0.494-0.855s-0.188-0.679-0.494-0.855L89.938 58.2l0.646-0.372c0.307-0.177 0.494-0.503 0.495-0.855 0-0.354-0.188-0.68-0.494-0.856l-0.646-0.372 0.646-0.373c0.306-0.177 0.494-0.503 0.494-0.855s-0.188-0.679-0.494-0.855l-0.647-0.374 0.646-0.373c0.307-0.177 0.495-0.503 0.495-0.856 0-0.353-0.188-0.679-0.494-0.854l-0.648-0.374 0.648-0.375c0.306-0.177 0.494-0.502 0.494-0.855 0-0.353-0.188-0.679-0.494-0.855l-2.879-1.662 3.061-1.767c0.01-0.006 0.018-0.014 0.027-0.02 0.031-0.02 0.06-0.041 0.087-0.063 0.025-0.02 0.051-0.038 0.073-0.061 0.024-0.021 0.046-0.047 0.067-0.071 0.022-0.025 0.044-0.05 0.063-0.076 0.019-0.027 0.034-0.056 0.051-0.084 0.016-0.028 0.032-0.056 0.046-0.084 0.014-0.031 0.024-0.062 0.035-0.096 0.01-0.03 0.021-0.061 0.028-0.092 0.008-0.03 0.012-0.062 0.016-0.094 0.006-0.036 0.011-0.07 0.012-0.107 0-0.012 0.003-0.022 0.003-0.033V33.206C91.276 33.123 91.264 33.042 91.244 32.965zM88.223 33.206l-13.694 7.909L52.531 28.608c1.333 0.193 2.989 0.377 4.49 0.377 0 0 0 0 0.001 0 2.231 0 3.562-0.409 4.066-1.251 0.33-0.551 0.287-1.225-0.128-2.001-0.712-1.34-1.747-2.042-3.073-2.104l6.874-3.969L88.223 33.206zM33.489 37.712l16.413-9.473 23.645 13.443-16.591 9.581L33.489 37.712zM55.938 53.027v8.864L32.725 48.49l0.04-8.844L55.938 53.027zM49.723 26.366c-2.78-3.772-6.804-10.133-5.757-12.262 0.083-0.168 0.336-0.681 1.545-0.681l0.16 0.003c1.429 0.053 2.479 0.49 3.212 1.338 1.873 2.168 1.374 6.724 0.933 10.743C49.784 25.796 49.752 26.081 49.723 26.366zM57.975 53.027l16.596-9.585-0.041 8.894-16.555 9.556V53.027zM51.403 27.438c0.079-0.05 0.159-0.1 0.239-0.151 0.41-0.259 0.829-0.522 1.258-0.783 0.41-0.26 0.851-0.501 1.265-0.726 1.49-0.807 2.612-1.182 3.533-1.182 1.058 0 1.819 0.507 2.399 1.597 0.242 0.453 0.293 0.802 0.152 1.037-0.141 0.233-0.735 0.775-3.228 0.775h-0.001C55.069 28.006 52.78 27.674 51.403 27.438zM43.166 7.193L63.78 19.095l-10.079 5.822L53.7 24.918c-0.431 0.232-0.886 0.482-1.315 0.754-0.002 0.001-0.004 0.002-0.005 0.003l-1.705 0.982c0.037-0.343 0.075-0.69 0.113-1.042 0.463-4.219 0.987-9-1.165-11.49-0.906-1.05-2.224-1.614-3.916-1.676-1.327-0.056-2.196 0.365-2.619 1.224-1.336 2.715 3.011 9.346 5.369 12.619L29.128 15.303 43.166 7.193zM28.146 15.87l20.771 11.81-16.406 9.467L11.942 25.269l-0.034-0.019L28.146 15.87zM11.945 36.495l-1.056-0.614v-8.866l20.897 12.066-0.039 8.846L11.945 36.495zM12.239 50.884c-2.689-3.228-1.221-6.42-0.366-7.761l26.422 15.256 17.836 10.298c-0.877 1.39-1.638 3.445-1.367 5.693 0.001 0.062 0.008 0.122 0.021 0.184 0.049 0.336 0.121 0.677 0.221 1.021L12.239 50.884zM87.494 75.24L56.956 92.871 13 67.493l-0.05-0.028 2.77-1.6 40.743 23.523c0.153 0.088 0.323 0.133 0.493 0.133 0.171 0 0.341-0.045 0.494-0.133l27.275-15.747L87.494 75.24zM87.494 69.762L56.956 87.393 13 62.016l-0.05-0.029 2.769-1.599 40.744 23.523c0.153 0.088 0.323 0.133 0.493 0.133 0.171-0.001 0.341-0.045 0.494-0.133l27.277-15.747L87.494 69.762zM56.956 81.915L13 56.537l-0.049-0.027 2.54-1.468 41.593 24.015c0.069 0.039 0.142 0.066 0.215 0.089 0.009 0.002 0.017 0.008 0.026 0.011 0.083 0.021 0.168 0.033 0.252 0.033 0.004 0 0.008-0.001 0.013 0 0.084 0 0.164-0.014 0.241-0.033l0.001-0.001c0.119-0.03 0.23-0.08 0.327-0.149l27.416-15.828 1.919 1.108L56.956 81.915zM56.781 75.041l31.182-18.402 0.15 0.15L56.81 75.219C56.8 75.179 56.79 75.141 56.781 75.041zM57.93 77.275l-0.092-0.141-0.001-0.002 30.128-17.779 0.15 0.149L57.93 77.275zM56.659 73.047l0.03-0.276 31.275-18.4 0.15 0.15L56.659 73.047zM57.977 69.803l0.185-0.309 29.802-17.588 0.152 0.15L57.977 69.803zM88.116 49.598L57.578 67.23l-43.957-25.38-0.047-0.027 1.769-1.021 41.104 23.735c0.013 0.007 0.026 0.01 0.039 0.016 0.054 0.028 0.109 0.051 0.168 0.069 0.021 0.007 0.042 0.015 0.064 0.02 0.076 0.019 0.155 0.031 0.237 0.031 0.083 0 0.162-0.013 0.239-0.031 0.021-0.005 0.041-0.013 0.063-0.02 0.059-0.019 0.114-0.041 0.168-0.069 0.013-0.007 0.026-0.009 0.039-0.016l28.266-16.316L88.116 49.598zM89.24 43.845L75.511 51.77l0.041-8.894L89.24 34.97V43.845z" data-fill-palette-color="accent"></path></svg></g></svg></g><g></g></svg></g><defs></defs></svg><rect width="287.9925266957957" height="247.2" fill="none" stroke="none" visibility="hidden"></rect></g></svg></g></svg>