<svg xmlns="http://www.w3.org/2000/svg" version="1.1" xmlns:xlink="http://www.w3.org/1999/xlink" xmlns:svgjs="http://svgjs.dev/svgjs" width="1000" height="1000" viewBox="0 0 1000 1000"><rect width="1000" height="1000" fill="#000000"></rect><g transform="matrix(0.7,0,0,0.7,149.57575757575756,444.696864035908)"><svg viewBox="0 0 396 63" data-background-color="#213555" preserveAspectRatio="xMidYMid meet" height="159" width="1000" xmlns="http://www.w3.org/2000/svg" xmlns:xlink="http://www.w3.org/1999/xlink"><g id="tight-bounds" transform="matrix(1,0,0,1,0.2400000000000091,-0.19633813353283358)"><svg viewBox="0 0 395.52 63.392676267065646" height="63.392676267065646" width="395.52"><g><svg viewBox="0 0 395.52 63.392676267065646" height="63.392676267065646" width="395.52"><g><svg viewBox="0 0 395.52 63.392676267065646" height="63.392676267065646" width="395.52"><g id="textblocktransform"><svg viewBox="0 0 395.52 63.392676267065646" height="63.392676267065646" width="395.52" id="textblock"><g><svg viewBox="0 0 395.52 63.392676267065646" height="63.392676267065646" width="395.52"><g transform="matrix(1,0,0,1,0,0)"><svg width="395.52" viewBox="2.85 -35.55 267.33 42.849999999999994" height="63.392676267065646" data-palette-color="#c5dff8"><path d="M24.85-5.4Q26.15-5.55 26.85-4.98 27.55-4.4 27.55-3.2L27.55-3.2Q27.55-1.35 25.65-0.95L25.65-0.95Q23.6-0.55 17.85-0.55L17.85-0.55 16.2-0.55Q13.05-0.55 10.48-0.68 7.9-0.8 4.5-1.2L4.5-1.2Q2.85-1.4 2.85-3.3L2.85-3.3Q2.85-4.25 3.25-4.85 3.65-5.45 4.4-5.5L4.4-5.5 5.1-5.5Q5.75-10 5.85-16.2L5.85-16.2 5.35-16.2Q3.4-16.2 3.4-18.5L3.4-18.5Q3.4-20.7 5.2-20.7L5.2-20.7 5.85-20.7 5.85-26.95 5.85-30.35Q4.35-30.75 4.35-32.4L4.35-32.4Q4.35-33.6 5-34.05 5.65-34.5 6.85-34.65L6.85-34.65Q9.5-34.95 15.55-34.95L15.55-34.95Q22.6-34.95 25.65-34.5L25.65-34.5Q26.65-34.35 27.25-33.9 27.85-33.45 27.85-32.4L27.85-32.4Q27.85-31.3 27.3-30.68 26.75-30.05 25.85-30.15L25.85-30.15Q20.95-30.55 17-30.55L17-30.55Q13.45-30.55 10.7-30.3L10.7-30.3 10.9-20.65 13.5-20.6Q16.9-20.6 19.3-20.45L19.3-20.45 22.25-20.4Q23.85-20.4 23.85-18.25L23.85-18.25Q23.85-17.2 23.43-16.57 23-15.95 22.2-15.95L22.2-15.95 19.55-16Q17.15-16.15 13.45-16.15L13.45-16.15 10.85-16.15Q10.8-10.75 10.1-5.2L10.1-5.2Q13.1-4.95 16.85-4.95L16.85-4.95Q19.4-4.95 21.05-5.05 22.7-5.15 24.85-5.4L24.85-5.4ZM31.4 7.1Q30.45 7.1 29.85 6.5 29.25 5.9 29.25 5L29.25 5Q29.25 4.05 29.85 3.5 30.45 2.95 31.4 2.95L31.4 2.95 42.65 3Q51.95 3.1 56.3 3.1L56.3 3.1Q57.15 3.1 57.72 3.63 58.3 4.15 58.3 5.05L58.3 5.05Q58.3 6.05 57.77 6.68 57.25 7.3 56.3 7.3L56.3 7.3Q52.7 7.3 44.1 7.2L44.1 7.2Q35.3 7.1 31.4 7.1L31.4 7.1ZM71.09 0.1Q66.45 0.1 64.32-0.85 62.2-1.8 61.52-4.1 60.84-6.4 60.84-11.3L60.84-11.3Q60.84-16.85 61.37-21.98 61.9-27.1 62.9-33.25L62.9-33.25Q63.05-34.15 63.75-34.68 64.45-35.2 65.55-35.2L65.55-35.2Q66.75-35.2 67.32-34.63 67.9-34.05 67.9-33.05L67.9-33.05Q67.9-32.65 67.84-32.45L67.84-32.45Q66.59-24.6 66.12-20.38 65.64-16.15 65.64-11.15L65.64-11.15Q65.64-8.15 65.95-6.8 66.25-5.45 67.25-4.9 68.25-4.35 70.45-4.3L70.45-4.3Q74.8-4.3 81.09-5.65L81.09-5.65Q81.3-5.7 81.65-5.7L81.65-5.7Q82.59-5.7 83.12-5.03 83.65-4.35 83.65-3.45L83.65-3.45Q83.65-2.4 83-1.83 82.34-1.25 81-1L81-1Q75.65 0.1 71.09 0.1L71.09 0.1ZM104.14-4.7Q105.34-4.7 105.84-4.13 106.34-3.55 106.34-2.45L106.34-2.45Q106.34-0.15 104.09-0.15L104.09-0.15 88.99-0.35Q86.99-0.4 86.99-2.65L86.99-2.65Q86.99-3.8 87.59-4.35 88.19-4.9 89.09-4.9L89.09-4.9 94.29-4.85Q95.04-17.4 95.09-30.9L95.09-30.9Q93.29-30.85 90.14-30.6L90.14-30.6 88.54-30.5Q87.74-30.5 87.24-31.1 86.74-31.7 86.74-32.75L86.74-32.75Q86.74-33.85 87.27-34.38 87.79-34.9 88.74-35.05L88.74-35.05Q89.64-35.15 92.44-35.3 95.24-35.45 97.94-35.5L97.94-35.5Q101.89-35.5 104.39-35.2L104.39-35.2Q106.34-34.95 106.34-32.95L106.34-32.95Q106.34-31.95 105.82-31.35 105.29-30.75 104.24-30.75L104.24-30.75 102.74-30.8 100.09-30.95Q100.09-16.15 99.19-4.75L99.19-4.75 104.14-4.7ZM110.54-2.35Q110.54-3.35 111.02-4.03 111.49-4.7 112.44-4.65L112.44-4.65 113.09-4.65Q113.69-11.5 113.69-19.15L113.69-19.15Q113.69-25.55 113.59-29.1L113.59-29.1Q113.44-29.1 113.14-29L113.14-29Q112.49-28.9 112.02-29.35 111.54-29.8 111.54-30.65L111.54-30.65Q111.54-31.65 112.19-32.33 112.84-33 114.29-33.6L114.29-33.6Q116.44-34.45 118.87-34.9 121.29-35.35 123.59-35.35L123.59-35.35Q127.49-35.35 130.62-34.2 133.74-33.05 135.54-30.85 137.34-28.65 137.34-25.65L137.34-25.65Q137.34-22.7 135.06-20.43 132.79-18.15 128.89-17.55L128.89-17.55Q132.69-16.8 134.77-14.53 136.84-12.25 136.84-9.45L136.84-9.45Q136.84-6.3 135.02-4.1 133.19-1.9 130.17-0.83 127.14 0.25 123.49 0.15L123.49 0.15 117.54-0.1Q116.99 1.3 115.14 1.3L115.14 1.3Q113.29 1.3 112.79-0.25L112.79-0.25 112.29-0.25Q110.54-0.4 110.54-2.35L110.54-2.35ZM117.94-4.35Q121.24-4.25 123.04-4.25L123.04-4.25Q127.34-4.25 129.62-5.53 131.89-6.8 131.89-9.65L131.89-9.65Q131.89-12.8 129.42-14.13 126.94-15.45 122.69-15.6L122.69-15.6Q121.34-15.6 120.64-16 119.94-16.4 119.94-17.65L119.94-17.65Q119.94-18.9 120.67-19.35 121.39-19.8 122.59-19.85L122.59-19.85Q125.24-19.95 127.27-20.33 129.29-20.7 130.81-21.9 132.34-23.1 132.34-25.45L132.34-25.45Q132.34-28.25 130.02-29.7 127.69-31.15 123.54-31.15L123.54-31.15Q122.44-31.15 121.04-30.98 119.64-30.8 118.59-30.5L118.59-30.5Q118.69-26.1 118.69-19.15L118.69-19.15Q118.69-15.25 118.52-12.03 118.34-8.8 117.94-4.35L117.94-4.35ZM168.29-5.1Q168.94-4.7 169.26-4.28 169.59-3.85 169.59-3.2L169.59-3.2Q169.59-2.15 168.94-1.38 168.29-0.6 167.19-0.6L167.19-0.6Q166.69-0.6 166.11-0.8 165.54-1 165.14-1.25L165.14-1.25 149.79-10.85 149.79-1.95Q149.79-0.9 149.14-0.3 148.49 0.3 147.39 0.3L147.39 0.3Q146.14 0.3 145.46-0.4 144.79-1.1 144.79-2.35L144.79-2.35Q144.79-10.4 144.74-18.25L144.74-18.25 144.59-26.8 144.39-26.7Q144.09-26.6 143.94-26.6L143.94-26.6Q142.29-26.6 142.29-29.2L142.29-29.2Q142.29-30.1 142.89-30.68 143.49-31.25 144.54-31.8L144.54-31.8 144.54-32.85Q144.54-33.95 145.21-34.55 145.89-35.15 147.24-35.15L147.24-35.15Q148.24-35.15 148.79-34.83 149.34-34.5 149.34-34L149.34-34 149.34-33.8Q153.04-35.05 156.04-35.05L156.04-35.05Q160.29-35.05 163.49-33.73 166.69-32.4 168.41-29.98 170.14-27.55 170.14-24.35L170.14-24.35Q170.14-21 168.21-18.63 166.29-16.25 163.04-15.08 159.79-13.9 155.84-13.9L155.84-13.9Q154.49-13.9 153.44-14.1L153.44-14.1 168.29-5.1ZM156.24-30.5Q154.59-30.5 153.06-30.13 151.54-29.75 149.54-29L149.54-29 149.59-27.1Q149.79-22 149.79-18.55L149.79-18.55Q152.14-18 155.44-18L155.44-18Q159.69-18 162.14-19.63 164.59-21.25 164.59-24.2L164.59-24.2Q164.59-27.05 162.31-28.78 160.04-30.5 156.24-30.5L156.24-30.5ZM201.99-8.25L203.79-2.3Q203.94-1.8 203.94-1.55L203.94-1.55Q203.94-0.55 203.14-0.03 202.34 0.5 201.14 0.5L201.14 0.5Q200.29 0.5 199.64 0.13 198.99-0.25 198.79-0.9L198.79-0.9Q197.59-4.95 196.69-8.25L196.69-8.25 183.79-8.3 181.59-1.1Q181.14 0.45 179.19 0.45L179.19 0.45Q178.09 0.45 177.24-0.13 176.39-0.7 176.39-1.6L176.39-1.6Q176.39-1.9 176.54-2.35L176.54-2.35Q181.54-17.3 184.19-25.35L184.19-25.35 185.59-29.7Q186.69-32.9 187.79-34.23 188.89-35.55 190.64-35.55L190.64-35.55Q192.29-35.55 193.31-34.35 194.34-33.15 195.29-30.2L195.29-30.2Q197.69-22.65 200.59-12.95L200.59-12.95 201.99-12.95Q202.99-12.95 203.51-12.33 204.04-11.7 204.04-10.6L204.04-10.6Q204.04-8.25 202.39-8.25L202.39-8.25 201.99-8.25ZM185.29-13.1L195.34-13 195.04-14.15Q193.09-21.05 191.94-24.85L191.94-24.85Q191.79-25.3 191.44-26.5 191.09-27.7 190.86-28.2 190.64-28.7 190.44-28.7L190.44-28.7Q190.19-28.7 189.96-28.13 189.74-27.55 189.34-26.1L189.34-26.1Q189.29-25.85 189.19-25.6 189.09-25.35 188.99-25L188.99-25Q188.79-24.3 188.64-23.95L188.64-23.95Q188.09-22.2 187.29-19.63 186.49-17.05 185.29-13.1L185.29-13.1ZM235.88-5.1Q236.53-4.7 236.86-4.28 237.18-3.85 237.18-3.2L237.18-3.2Q237.18-2.15 236.53-1.38 235.88-0.6 234.78-0.6L234.78-0.6Q234.28-0.6 233.71-0.8 233.13-1 232.73-1.25L232.73-1.25 217.38-10.85 217.38-1.95Q217.38-0.9 216.73-0.3 216.08 0.3 214.98 0.3L214.98 0.3Q213.73 0.3 213.06-0.4 212.38-1.1 212.38-2.35L212.38-2.35Q212.38-10.4 212.33-18.25L212.33-18.25 212.18-26.8 211.98-26.7Q211.68-26.6 211.53-26.6L211.53-26.6Q209.88-26.6 209.88-29.2L209.88-29.2Q209.88-30.1 210.48-30.68 211.08-31.25 212.13-31.8L212.13-31.8 212.13-32.85Q212.13-33.95 212.81-34.55 213.48-35.15 214.83-35.15L214.83-35.15Q215.83-35.15 216.38-34.83 216.93-34.5 216.93-34L216.93-34 216.93-33.8Q220.63-35.05 223.63-35.05L223.63-35.05Q227.88-35.05 231.08-33.73 234.28-32.4 236.01-29.98 237.73-27.55 237.73-24.35L237.73-24.35Q237.73-21 235.81-18.63 233.88-16.25 230.63-15.08 227.38-13.9 223.43-13.9L223.43-13.9Q222.08-13.9 221.03-14.1L221.03-14.1 235.88-5.1ZM223.83-30.5Q222.18-30.5 220.66-30.13 219.13-29.75 217.13-29L217.13-29 217.18-27.1Q217.38-22 217.38-18.55L217.38-18.55Q219.73-18 223.03-18L223.03-18Q227.28-18 229.73-19.63 232.18-21.25 232.18-24.2L232.18-24.2Q232.18-27.05 229.91-28.78 227.63-30.5 223.83-30.5L223.83-30.5ZM257.03-0.1Q255.78-0.1 255.16-0.75 254.53-1.4 254.53-2.5L254.53-2.5 254.38-16.45Q253.33-16.75 251.68-18.5 250.03-20.25 248.48-22.65L248.48-22.65Q247.08-24.75 246.03-26.98 244.98-29.2 243.83-32.15L243.83-32.15Q243.68-32.45 243.68-32.8L243.68-32.8Q243.68-33.7 244.51-34.38 245.33-35.05 246.43-35.05L246.43-35.05Q247.33-35.05 247.91-34.52 248.48-34 248.93-33L248.93-33Q250.23-29.95 250.96-28.48 251.68-27 253.03-24.85L253.03-24.85Q254.28-22.8 255.28-21.55 256.28-20.3 256.98-20.3L256.98-20.3Q258.18-20.3 260.88-24.9L260.88-24.9Q262.58-27.8 265.08-33.2L265.08-33.2Q265.53-34.15 266.01-34.55 266.48-34.95 267.33-34.95L267.33-34.95Q268.53-34.95 269.36-34.3 270.18-33.65 270.18-32.7L270.18-32.7Q270.18-32.2 269.93-31.8L269.93-31.8Q267.68-26.25 265.43-22.55L265.43-22.55Q263.88-20.05 262.11-18.38 260.33-16.7 259.38-16.45L259.38-16.45 259.53-2.6Q259.53-1.4 258.91-0.75 258.28-0.1 257.03-0.1L257.03-0.1Z" opacity="1" transform="matrix(1,0,0,1,0,0)" fill="#ffffff" class="wordmark-text-0" data-fill-palette-color="primary" id="text-0"></path></svg></g></svg></g></svg></g></svg></g><g></g></svg></g><defs></defs></svg><rect width="395.52" height="63.392676267065646" fill="none" stroke="none" visibility="hidden"></rect></g></svg></g></svg>